<?xml version="1.0" encoding="UTF-8" standalone="no"?>
<!DOCTYPE svg PUBLIC "-//W3C//DTD SVG 1.1//EN" "http://www.w3.org/Graphics/SVG/1.1/DTD/svg11.dtd">
<svg width="100%" height="100%" viewBox="0 0 69 43" version="1.1" xmlns="http://www.w3.org/2000/svg" xmlns:xlink="http://www.w3.org/1999/xlink" xml:space="preserve" xmlns:serif="http://www.serif.com/" style="fill-rule:evenodd;clip-rule:evenodd;">
    <g transform="matrix(1,0,0,1,-1.368353,2.380247)">
        <g>
            <path id="path2991_3_" d="M33.994,8.727C33.334,9.546 32.059,10.063 31.173,9.846C30.287,9.63 30.164,8.772 30.872,7.965C31.58,7.158 32.813,6.695 33.651,6.9C34.489,7.105 34.654,7.908 33.994,8.727Z" style="fill:white;fill-rule:nonzero;stroke:white;stroke-width:1px;"/>
            <path id="path3761_3_" d="M29.76,12.939C26.581,12.802 25.467,10.366 27.211,7.855C28.954,5.345 32.526,3.682 35.227,3.824C37.928,3.966 39.095,5.879 37.83,8.383C37.486,9.044 37.039,9.645 36.505,10.165" style="fill-rule:nonzero;stroke:white;stroke-width:3px;"/>
            <path id="path2991-6_3_" d="M57.354,9.847C56.208,10.063 55.553,9.547 55.878,8.728C56.203,7.909 57.333,7.105 58.417,6.901C59.501,6.696 60.178,7.159 59.916,7.966C59.654,8.773 58.5,9.63 57.354,9.847Z" style="fill:white;fill-rule:nonzero;stroke:white;stroke-width:1px;"/>
            <path id="path3761-1_3_" d="M51.643,10.135C52.132,7.773 55.194,5.233 58.369,4.234C61.544,3.235 64.063,4.017 64.133,6.178C64.202,8.339 61.336,11.258 57.603,12.457C56.7,12.747 55.811,12.912 55.005,12.941" style="fill-rule:nonzero;stroke:white;stroke-width:3px;"/>
            <path id="path2991-9_3_" d="M47.629,29.565C47.953,28.746 49.432,27.886 50.952,27.6C52.472,27.314 53.506,27.698 53.244,28.506C52.982,29.313 51.471,30.248 49.89,30.547C48.307,30.844 47.304,30.384 47.629,29.565Z" style="fill:white;fill-rule:nonzero;stroke:white;stroke-width:1px;"/>
            <path id="path3761-2_3_" d="M50.445,25.017C54.892,23.797 58.692,24.255 59.024,26.348C59.356,28.441 55.623,31.605 50.6,33.066C45.577,34.527 41.657,33.514 41.9,31.18C41.959,30.615 42.249,30.008 42.737,29.395" style="fill-rule:nonzero;stroke:white;stroke-width:3px;"/>
            <path id="path2991-6-9_3_" d="M16.242,27.599C17.417,27.886 17.863,28.745 17.203,29.564C16.543,30.383 14.987,30.844 13.764,30.545C12.541,30.246 12.154,29.312 12.862,28.504C13.57,27.696 15.067,27.312 16.242,27.599Z" style="fill:white;fill-rule:nonzero;stroke:white;stroke-width:1px;"/>
            <path id="path3761-1-5_3_" d="M22.283,29.43C21.23,31.962 16.895,34.08 12.71,33.722C8.525,33.364 6.519,30.604 8.082,28.026C9.645,25.448 13.789,24.03 17.464,24.434C18.297,24.518 19.115,24.72 19.892,25.033" style="fill-rule:nonzero;stroke:white;stroke-width:3px;"/>
            <path d="M15.002,29.072C30.226,24.656 45.111,17.858 57.886,8.373" style="fill:none;fill-rule:nonzero;stroke:white;stroke-width:3px;"/>
            <path d="M50.423,29.072C42.048,26.265 33.602,17.384 32.413,8.373" style="fill:none;fill-rule:nonzero;stroke:white;stroke-width:3px;"/>
            <path d="M47.009,19.801C45.464,23.119 39.609,26.38 34.329,26.38C29.049,26.38 27.112,23.12 29.555,19.801C31.998,16.482 37.229,14.265 41.608,14.265C45.987,14.265 48.553,16.483 47.009,19.801Z" style="fill:white;fill-rule:nonzero;stroke:white;stroke-width:3px;"/>
        </g>
    </g>
</svg>
