<svg width="280" height="280" viewBox="0 0 280 280" fill="none" xmlns="http://www.w3.org/2000/svg">
<rect width="280" height="280" rx="32" fill="#E85D04"/>
<path fill-rule="evenodd" clip-rule="evenodd" d="M222.899 150.58C223.257 152.808 223.071 155.088 222.36 157.229C221.542 159.691 220.083 161.857 218.122 163.55C207.103 173.061 168.324 207.446 147.684 237.573C146.836 238.81 145.727 239.83 144.414 240.548C143.038 241.301 141.516 241.679 139.996 241.679C138.475 241.679 136.954 241.302 135.577 240.548C134.264 239.83 133.156 238.81 132.309 237.573C111.668 207.446 72.8869 173.06 61.8696 163.55C59.9083 161.857 58.4495 159.691 57.6313 157.229C56.9206 155.089 56.7357 152.807 57.0936 150.58L66.1757 38.3193L116.071 90.7384L118.609 90.2407C125.671 88.8582 132.831 88.1374 139.996 88.078C147.16 88.1373 154.321 88.8582 161.383 90.2407L163.921 90.7384L213.816 38.3193L222.899 150.58ZM145.16 224.111C141.753 223.43 138.243 223.43 134.836 224.111C134.335 224.212 134.088 224.782 134.359 225.215L138.947 232.556C139.433 233.333 140.563 233.333 141.049 232.556L145.637 225.215C145.908 224.782 145.662 224.211 145.16 224.111ZM85.4356 143.719C85.4919 143.809 97.4476 163.831 113.988 171.13C120.838 174.153 128.793 195.627 128.836 195.799C128.805 195.598 124.341 162.671 117.512 156.811C110.66 150.933 100.282 151.95 85.4356 143.719ZM194.556 143.719C179.709 151.949 169.331 150.932 162.479 156.811C155.649 162.672 151.186 195.607 151.156 195.799C151.194 195.638 159.152 174.155 166.003 171.13C182.531 163.837 194.48 143.841 194.556 143.719Z" fill="#090A0B"/>
</svg>
