<svg xmlns="http://www.w3.org/2000/svg" width="24" height="28" fill="none"><g clip-path="url(#prefix__clip0_1355_1584)"><path d="M12 .8H.774v11.6H12V.8z" fill="#3254AD"/><path d="M.803 12.4H12v15.2s-5.142-2.064-7.843-6.2c-3.92-6-3.354-9-3.354-9z" fill="#293040"/><path d="M23.224 12.4H12v15.2s4.804-1.365 7.8-6c3.619-5.6 3.424-9.2 3.424-9.2z" fill="#3254AD"/><path d="M12 .8h11.226v11.6H12V.8z" fill="#293040"/><path d="M12 16c1.71 0 3.097-1.433 3.097-3.2 0-1.768-1.387-3.2-3.097-3.2s-3.097 1.432-3.097 3.2c0 1.767 1.387 3.2 3.097 3.2z" fill="#293040"/><path fill-rule="evenodd" clip-rule="evenodd" d="M.968 1v11.4c0 .906.31 2.453.993 4.219.676 1.747 1.683 3.622 3.005 5.198 2.143 2.553 4.908 4.32 7.035 5.124 2.164-.81 5.064-2.563 7.006-5.09 3.22-4.195 4.025-7.562 4.025-9.451V1H.968zM0 12.4c0 2.163 1.421 6.719 4.235 10.072C6.598 25.288 9.677 27.2 12 28c2.323-.8 5.587-2.692 7.765-5.528C23.089 18.142 24 14.563 24 12.4V0H0v12.4z" fill="#ACACAC"/><path d="M11.613 3.72h.774l.173 2.328c.388.04.719.115.976.19a4.47 4.47 0 01.598.226l.011.005.004.002h.001l.002.002.432.223-.432.895-.432-.223-.002-.001a1.31 1.31 0 00-.102-.046 3.55 3.55 0 00-.346-.12 4.296 4.296 0 00-.302-.078V8.23a4.33 4.33 0 00-1.936 0V7.123c-.111.024-.213.051-.303.077a3.55 3.55 0 00-.448.167h-.002l-.431.224-.433-.895.433-.223.017-.01a2.085 2.085 0 01.159-.07c.104-.043.253-.099.44-.154.256-.076.587-.151.976-.19l.173-2.33zM16.384 11.92a4.665 4.665 0 00-.586-1.6h5.492c0 .4-1.548 1.6-1.935 1.6h-2.97zM2.71 10.32H8.2a4.666 4.666 0 00-.586 1.6h-2.97c-.387 0-1.936-1.2-1.936-1.6zM16.447 12.92c-.02.49-.115.961-.272 1.4h1.864c.425 0 1.703-1.001 1.703-1.4h-3.295zM7.825 14.32a4.714 4.714 0 01-.272-1.4H4.258c0 .399 1.278 1.4 1.704 1.4h1.863zM11.063 17.38l-.007-.163a4.336 4.336 0 001.89-.001l-.006.16-.068 1.615c-.05 1.218-.098 2.524-.098 2.93 0 .473-.108.92-.21 1.239a4.858 4.858 0 01-.208.532l-.004.009-.002.003v.001l-.348.703-.343-.706-.002-.004-.005-.009a1.945 1.945 0 01-.064-.145 5.243 5.243 0 01-.145-.394 4.113 4.113 0 01-.217-1.229c-.001-.39-.05-1.697-.097-2.919l-.066-1.622z" fill="#fff"/><path fill-rule="evenodd" clip-rule="evenodd" d="M8.516 12.72c0-1.988 1.56-3.6 3.484-3.6s3.484 1.612 3.484 3.6-1.56 3.6-3.484 3.6-3.484-1.612-3.484-3.6zm.802-.4c.17-1.226 1.108-2.196 2.295-2.372v1.572h.774V9.948c1.187.176 2.125 1.146 2.295 2.372h-1.52v.8h1.52c-.17 1.226-1.108 2.196-2.295 2.372V13.92h-.774v1.572c-1.187-.176-2.126-1.146-2.295-2.372h1.52v-.8h-1.52z" fill="#fff"/></g><defs><clipPath id="prefix__clip0_1355_1584"><path fill="#fff" d="M0 0h24v28H0z"/></clipPath></defs></svg>